<svg width="104" height="32" viewBox="0 0 104 32" fill="none" xmlns="http://www.w3.org/2000/svg">
<path d="M15.6653 28.9195L15.7491 28.8208L19.1594 24.6636H14.6218C8.93242 24.6636 4.30362 20.0862 4.30362 14.4597C4.30362 8.83302 8.93242 4.25561 14.6218 4.25561H19.9222L23.4487 0H14.6218C6.55917 0 0 6.4866 0 14.4597C0 22.4329 6.55917 28.9195 14.6218 28.9195H15.6653Z" fill="#0E39A9"/>
<path d="M0 14.4597C0 18.1384 1.39841 21.4985 3.69423 24.0532L6.45745 20.6886C5.10883 18.9639 4.30338 16.8038 4.30338 14.4597C4.30338 8.83326 8.93242 4.25584 14.6218 4.25584H19.9539L23.4487 0H14.6218C6.55918 0 0 6.4866 0 14.4597Z" fill="#1974D2"/>
<path d="M19.1589 24.6648L23.4623 19.4185V12.1738H14.32L10.8337 16.4297H19.1589V24.6648Z" fill="#0E39A9"/>
<path d="M98.5031 20.5348C96.8996 20.5348 95.7794 21.595 95.7794 23.1128V23.1512C95.7794 24.6564 96.9248 25.7486 98.5031 25.7486C100.111 25.7486 101.323 24.6321 101.323 23.1512V23.1128C101.323 21.6433 100.111 20.5348 98.5031 20.5348ZM104 19.7475V26.6407C104 28.3704 103.545 29.6979 102.647 30.5858C101.698 31.5244 100.238 32.0003 98.3092 32.0003C96.9706 32.0003 95.7087 31.7444 94.5571 31.2391C94.2683 31.1124 94.0499 30.8796 93.9415 30.5839C93.8333 30.2895 93.8524 29.9592 93.9927 29.6786C94.2743 29.1162 94.948 28.8837 95.5231 29.1469C96.3898 29.5436 97.2819 29.7363 98.2508 29.7363C100.248 29.7363 101.304 28.7322 101.304 26.8325V26.5646C100.345 27.6024 99.2471 28.0889 97.8827 28.0889C94.74 28.0889 93.0443 25.5547 93.0443 23.1703V23.1319C93.0443 19.9247 95.5374 18.1941 97.8827 18.1941C99.5708 18.1941 100.615 18.9347 101.29 19.6292C101.351 18.9442 101.934 18.4049 102.643 18.4049C103.391 18.4049 104 19.0073 104 19.7475ZM88.274 18.424C87.0586 18.424 86.0651 18.8886 85.2518 19.841C85.178 19.1637 84.5965 18.6348 83.892 18.6348C83.1382 18.6348 82.5248 19.2415 82.5248 19.9871V27.7718C82.5248 28.5179 83.1382 29.1243 83.892 29.1243C84.6462 29.1243 85.2597 28.5179 85.2597 27.7718V23.2278C85.2597 21.8126 86.0925 20.8986 87.3818 20.8986C88.6757 20.8986 89.3884 21.712 89.3884 23.1892V27.7814C89.3884 28.5221 89.9976 29.1243 90.7461 29.1243C91.4949 29.1243 92.104 28.5221 92.104 27.7814V22.4801C92.104 19.9781 90.6365 18.424 88.274 18.424ZM80.1366 15.3053H79.8545C79.1586 15.3053 78.5924 15.8648 78.5924 16.553C78.5924 17.2411 79.1586 17.8009 79.8545 17.8009H80.1366C80.8322 17.8009 81.3985 17.2411 81.3985 16.553C81.3985 15.8648 80.8322 15.3053 80.1366 15.3053ZM79.9955 18.6348C79.2413 18.6348 78.6276 19.2415 78.6276 19.9871V27.7718C78.6276 28.5179 79.2413 29.1243 79.9955 29.1243C80.7498 29.1243 81.3632 28.5179 81.3632 27.7718V19.9871C81.3632 19.2415 80.7498 18.6348 79.9955 18.6348ZM73.6193 18.424C72.4034 18.424 71.4102 18.8886 70.5967 19.841C70.5233 19.1637 69.9413 18.6348 69.2371 18.6348C68.4826 18.6348 67.8694 19.2415 67.8694 19.9871V27.7718C67.8694 28.5179 68.4826 29.1243 69.2371 29.1243C69.9913 29.1243 70.6048 28.5179 70.6048 27.7718V23.2278C70.6048 21.8126 71.4378 20.8986 72.7271 20.8986C74.0205 20.8986 74.7335 21.712 74.7335 23.1892V27.7814C74.7335 28.5221 75.3424 29.1243 76.0914 29.1243C76.8397 29.1243 77.4488 28.5221 77.4488 27.7814V22.4801C77.4488 19.9781 75.9816 18.424 73.6193 18.424ZM54.8425 24.1586C53.432 24.1586 52.6229 24.707 52.6229 25.6633V25.7014C52.6229 26.522 53.3341 27.0521 54.4354 27.0521C55.9122 27.0521 56.984 26.2176 56.984 25.0684V24.5054C56.512 24.3381 55.7857 24.1586 54.8425 24.1586ZM58.4262 19.4573C59.1928 20.1968 59.5835 21.2922 59.5835 22.7102V27.5802C59.5835 28.3049 58.9875 28.8943 58.2549 28.8943C57.6255 28.8943 57.0969 28.4592 56.9604 27.8773C56.1333 28.6823 55.0412 29.1049 53.776 29.1049C51.9314 29.1049 49.946 28.07 49.946 25.7971V25.7589C49.946 23.6029 51.6024 22.3163 54.3773 22.3163C55.4972 22.3163 56.3036 22.4869 56.9454 22.6739V22.6718C56.9454 21.0006 55.6647 20.6498 54.5902 20.6498C53.8934 20.6498 53.2626 20.7447 52.6051 20.949C52.0036 21.1365 51.3677 20.8161 51.1583 20.222C51.0552 19.9277 51.0742 19.6113 51.2119 19.3312C51.3484 19.0542 51.5847 18.8466 51.878 18.7472C52.8457 18.4179 53.7779 18.2709 54.9007 18.2709C56.4422 18.2709 57.6617 18.681 58.4262 19.4573ZM41.9074 22.7571H46.7344C46.5552 21.6105 45.8477 20.458 44.3471 20.458C43.1109 20.458 42.1706 21.3528 41.9074 22.7571ZM49.4564 23.8222C49.4554 24.2856 49.0717 24.6571 48.6009 24.6571H41.931C42.2228 26.0223 43.2503 26.8608 44.657 26.8608C45.4615 26.8608 46.1062 26.6501 46.747 26.1776C47.172 25.8635 47.7712 25.8909 48.1716 26.2423C48.4222 26.4621 48.5618 26.7788 48.554 27.1107C48.5464 27.4424 48.3925 27.7522 48.1318 27.9607C47.1663 28.7329 45.9842 29.1243 44.6184 29.1243C41.4667 29.1243 39.1789 26.8381 39.1789 23.6879V23.4697C39.1789 22.0565 39.7593 20.6752 40.7713 19.6801C41.7528 18.7142 43.0402 18.1858 44.4014 18.1939C47.8934 18.2131 49.4564 21.0345 49.4564 23.8222ZM38.1546 26.3816H32.8225C32.5288 26.3816 32.2903 26.1455 32.2903 25.8553V16.3638C32.2903 15.6709 31.7202 15.1074 31.0196 15.1074H30.8061C30.1055 15.1074 29.5356 15.6709 29.5356 16.3638V28.0811C29.5356 28.5296 29.9044 28.8943 30.3578 28.8943H38.1546C38.8552 28.8943 39.425 28.3306 39.425 27.638C39.425 26.9453 38.8552 26.3816 38.1546 26.3816ZM67.0749 19.8745C67.0749 20.5061 66.6647 21.051 66.0543 21.2307C65.1872 21.4856 64.0875 21.991 63.7733 22.9505C63.5572 23.4987 63.4491 24.1393 63.4491 24.8642V27.772C63.4491 28.5179 62.8358 29.1243 62.0816 29.1243C61.3276 29.1243 60.7139 28.5179 60.7139 27.772V19.7642C60.7139 19.0184 61.3276 18.412 62.0816 18.412C62.8358 18.412 63.4491 19.0184 63.4491 19.7642V20.1023C63.8593 19.4205 64.3858 18.9154 65.0207 18.5967C65.4545 18.379 65.9633 18.4014 66.3831 18.6563C66.8162 18.9192 67.0749 19.3746 67.0749 19.8745Z" fill="#0E39A9"/>
<path d="M76.1169 11.7345C76.0042 11.747 75.8892 11.7533 75.7708 11.7533C75.0272 11.7533 74.6956 11.4195 74.6956 10.6706V5.8875H76.2556C76.9135 5.8875 77.4488 5.35838 77.4488 4.70769C77.4488 4.05724 76.9135 3.52788 76.2556 3.52788H74.6956V2.09035C74.6956 1.3499 74.0865 0.747511 73.3375 0.747511C72.5885 0.747511 71.9796 1.3499 71.9796 2.09035V3.52788H71.8736C71.216 3.52788 70.6805 4.05724 70.6805 4.70769C70.6805 5.35838 71.216 5.8875 71.8736 5.8875H71.9796V11.0348C71.9796 13.1282 73.0335 14.1895 75.1116 14.1895C75.6721 14.1895 76.1638 14.1153 76.6146 13.9629C77.0903 13.8015 77.4103 13.3631 77.4103 12.8721C77.4103 12.5473 77.2702 12.2368 77.0253 12.0203C76.7787 11.8021 76.4488 11.6968 76.1169 11.7345ZM65.6217 9.2811C64.2111 9.2811 63.4021 9.82978 63.4021 10.7856V10.824C63.4021 11.6447 64.1132 12.175 65.2146 12.175C66.6914 12.175 67.7634 11.3406 67.7634 10.1912V9.62812C67.291 9.46086 66.5644 9.2811 65.6217 9.2811ZM69.2056 4.58024C69.9722 5.31951 70.3629 6.41474 70.3629 7.83296V12.6453C70.3629 13.3098 69.8891 13.9125 69.2235 14.0039C68.5133 14.1014 67.8899 13.6394 67.7398 12.9998C66.9122 13.8048 65.8204 14.2277 64.5554 14.2277C62.7108 14.2277 60.7254 13.1925 60.7254 10.9198V10.8814C60.7254 8.72607 62.3818 7.43907 65.1564 7.43907C66.2771 7.43907 67.0835 7.60963 67.7246 7.79668V7.79433C67.7246 6.12332 66.4438 5.77254 65.3697 5.77254C64.6733 5.77254 64.0425 5.86771 63.3845 6.07197C62.7827 6.25902 62.1462 5.93886 61.9375 5.34448C61.8155 4.99676 61.8646 4.61794 62.0785 4.30437C62.2276 4.08575 62.463 3.93427 62.7158 3.84993C63.6625 3.53448 64.5795 3.3936 65.6798 3.3936C67.2221 3.3936 68.4409 3.80399 69.2056 4.58024ZM55.1277 5.58054C53.892 5.58054 52.9517 6.47576 52.688 7.88008H57.5155C57.3358 6.73325 56.6285 5.58054 55.1277 5.58054ZM60.237 8.94516C60.2368 9.40808 59.8527 9.7796 59.382 9.7796H52.7118C53.0036 11.1451 54.0311 11.9833 55.4379 11.9833C56.2421 11.9833 56.8868 11.7727 57.5276 11.3001C57.9531 10.9867 58.5525 11.0138 58.9522 11.3649C59.2033 11.5849 59.3427 11.9013 59.3353 12.2332C59.327 12.5652 59.1733 12.875 58.9127 13.0834C57.9474 13.8555 56.7655 14.247 55.3993 14.247C52.2475 14.247 49.96 11.9606 49.96 8.81064V8.59273C49.96 7.17922 50.5403 5.79775 51.5521 4.80263C52.5272 3.8438 53.8053 3.31704 55.1537 3.31704H55.1822C58.674 3.33588 60.237 6.15725 60.237 8.94516ZM49.342 3.77902C48.9225 3.52388 48.4134 3.50173 47.9799 3.71942C47.3447 4.03816 46.8185 4.54302 46.4082 5.22504V4.88697C46.4082 4.14135 45.7948 3.53448 45.0408 3.53448C44.2866 3.53448 43.6731 4.14135 43.6731 4.88697V12.8947C43.6731 13.6404 44.2866 14.247 45.0408 14.247C45.7948 14.247 46.4082 13.6404 46.4082 12.8947V9.98692C46.4082 9.26202 46.5159 8.62147 46.7322 8.07303C47.0467 7.11372 48.1461 6.60816 49.0133 6.35325C49.6239 6.17374 50.0339 5.62883 50.0339 4.99723C50.0339 4.49732 49.7751 4.04193 49.342 3.77902ZM42.6049 7.51492V11.2935C42.6049 11.7997 42.3648 12.2747 41.9629 12.5635C40.8937 13.3315 39.1227 14.247 36.7583 14.247C32.5056 14.247 29.5354 11.3335 29.5354 7.16202V7.12338C29.5354 3.12904 32.691 0 36.7197 0C38.4666 0 39.7945 0.342305 41.0245 1.10984C41.3413 1.30773 41.5562 1.63025 41.6139 1.9947C41.6708 2.35514 41.5674 2.72195 41.3306 3.00135L41.2289 3.12103C40.8141 3.60987 40.0835 3.71023 39.5294 3.35497C38.6625 2.79922 37.766 2.55138 36.6225 2.55138C34.2581 2.55138 32.4061 4.54278 32.4061 7.08522V7.12338C32.4061 9.83803 34.2278 11.734 36.8359 11.734C37.6655 11.734 38.4831 11.558 39.2004 11.2254C39.6423 11.0202 39.9275 10.5575 39.9275 10.046V8.59084H37.689C37.0087 8.59084 36.4572 8.04546 36.4572 7.37263C36.4572 6.6998 37.0087 6.15442 37.689 6.15442H41.2289C41.9889 6.15442 42.6049 6.76341 42.6049 7.51492Z" fill="#1974D2"/>
</svg>
